<svg width="255.327148" height="40.000000" viewBox="0 0 255.327 40" fill="none" xmlns="http://www.w3.org/2000/svg" xmlns:xlink="http://www.w3.org/1999/xlink">
	<desc>
			Created with Pixso.
	</desc>
	<defs/>
	<path id="Vector" d="M49.8408 21.5244C49.8408 13.3044 55.2458 8.53516 61.459 8.53516C62.8423 8.5448 64.2097 8.83374 65.48 9.38513C66.7505 9.93652 67.8982 10.739 68.8555 11.7452L65.9309 15.3451C64.8125 14.1406 63.2659 13.4315 61.6296 13.3732C58.2158 13.3732 55.5874 16.3655 55.5874 21.3983C55.5874 26.4313 57.9429 29.4235 61.5386 29.4235C62.4568 29.4084 63.3611 29.196 64.1912 28.8007C65.0212 28.4052 65.7578 27.8358 66.3521 27.1306L69.2878 30.6503C68.3152 31.8191 67.0945 32.7534 65.7161 33.3844C64.3376 34.0153 62.8362 34.3268 61.3225 34.2959C55.0525 34.2386 49.8408 29.8706 49.8408 21.5244Z" fill="#FFFFFF" fill-opacity="1.000000" fill-rule="nonzero"/>
	<path id="Vector" d="M70.7324 24.3452C70.7324 18.2346 75.0679 14.4513 79.5627 14.4513C84.8997 14.4513 87.5281 18.3607 87.5281 23.5083C87.5303 24.3391 87.4541 25.1683 87.3005 25.9846L76.0466 25.9846C76.2002 27.146 76.7891 28.2041 77.6926 28.9418C78.5962 29.6794 79.7458 30.0406 80.9055 29.9513C82.3433 29.9236 83.7456 29.495 84.9565 28.7131L86.7886 32.0837C84.8284 33.4346 82.5176 34.176 80.1431 34.2161C74.8062 34.239 70.7324 30.5934 70.7324 24.3452ZM82.8057 22.2815C82.8057 20.2064 81.9067 18.7161 79.6877 18.7161C77.9355 18.7161 76.4221 19.8625 76.0466 22.2815L82.8057 22.2815Z" fill="#FFFFFF" fill-opacity="1.000000" fill-rule="nonzero"/>
	<path id="Vector" d="M89.8042 14.9095L94.356 14.9095L94.7314 17.34L94.8679 17.34C95.634 16.4874 96.5605 15.797 97.594 15.3088C98.6277 14.8208 99.7471 14.5447 100.887 14.4968C104.961 14.4968 106.702 17.3973 106.702 22.1093L106.702 33.7802L101.149 33.7802L101.149 22.7742C101.149 20.0686 100.432 19.2087 98.8735 19.2087C97.4739 19.2087 96.5977 19.8737 95.4597 21.0431L95.4597 33.7802L89.8042 33.7802L89.8042 14.9095Z" fill="#FFFFFF" fill-opacity="1.000000" fill-rule="nonzero"/>
	<path id="Vector" d="M111.403 26.9128L111.403 19.3004L108.842 19.3004L108.842 15.1273L111.71 14.9095L112.358 9.89954L116.91 9.89954L116.91 14.9095L121.462 14.9095L121.462 19.3004L116.91 19.3004L116.91 26.8556C116.91 28.9879 117.877 29.8478 119.334 29.8478C119.944 29.825 120.547 29.7051 121.12 29.4924L121.997 33.5509C120.654 34.0049 119.248 34.2372 117.832 34.2388C113.235 34.2388 111.403 31.2924 111.403 26.9128Z" fill="#FFFFFF" fill-opacity="1.000000" fill-rule="nonzero"/>
	<path id="Vector" d="M124.352 14.9099L128.904 14.9099L129.302 18.2117L129.439 18.2117C130.804 15.6895 132.853 14.4513 134.753 14.4513C135.53 14.4069 136.307 14.536 137.029 14.8296L136.05 19.6333C135.391 19.4458 134.71 19.3456 134.025 19.3352C132.614 19.3352 130.895 20.2523 129.894 22.7745L129.894 33.7117L124.352 33.7117L124.352 14.9099Z" fill="#FFFFFF" fill-opacity="1.000000" fill-rule="nonzero"/>
	<path id="Vector" d="M137.46 28.5411C137.46 24.563 140.59 22.4192 147.998 21.6625C148.018 21.2766 147.954 20.8907 147.809 20.533C147.664 20.1752 147.442 19.8542 147.159 19.5934C146.876 19.3324 146.539 19.1378 146.172 19.0238C145.806 18.9098 145.419 18.8792 145.039 18.934C143.293 19.0613 141.608 19.6376 140.146 20.6078L138.166 16.9391C140.541 15.3813 143.299 14.5199 146.131 14.4513C150.922 14.4513 153.573 17.2028 153.573 22.9923L153.573 33.7805L149.022 33.7805L148.623 31.843L148.487 31.843C147.029 33.2975 145.086 34.152 143.036 34.239C142.29 34.2654 141.547 34.1354 140.853 33.8572C140.16 33.5791 139.531 33.1589 139.007 32.6234C138.483 32.0878 138.074 31.4485 137.808 30.7457C137.542 30.0431 137.424 29.2924 137.46 28.5411ZM147.998 28.3004L147.998 24.9987C144.06 25.5375 142.774 26.6725 142.774 28.0941C142.774 29.3093 143.594 29.9055 144.914 29.9055C145.512 29.8749 146.096 29.7158 146.628 29.439C147.16 29.1622 147.627 28.7739 147.998 28.3004Z" fill="#FFFFFF" fill-opacity="1.000000" fill-rule="nonzero"/>
	<path id="Vector" d="M157.455 27.9105L157.455 7.13684L163.008 7.13684L163.008 28.1399C163.008 29.2863 163.554 29.7219 164.009 29.7219C164.24 29.7302 164.47 29.7031 164.692 29.6417L165.352 33.7689C164.463 34.1101 163.515 34.2699 162.564 34.239C158.763 34.239 157.455 31.7283 157.455 27.9105Z" fill="#FFFFFF" fill-opacity="1.000000" fill-rule="nonzero"/>
	<path id="Vector" d="M170.074 7.89331L174.011 7.89331L178.939 21.731C179.553 23.4965 180.145 25.3193 180.759 27.1193L180.919 27.1193C181.533 25.3193 182.057 23.4965 182.694 21.731L187.564 7.89331L191.501 7.89331L191.501 33.7802L188.463 33.7802L188.463 19.5298C188.463 17.2369 188.713 14.1644 188.873 11.8715L188.713 11.8715L186.677 17.7758L181.84 31.1663L179.678 31.1663L174.819 17.7758L172.782 11.8715L172.623 11.8715C172.782 14.1644 173.033 17.2712 173.033 19.5298L173.033 33.7802L170.074 33.7802L170.074 7.89331Z" fill="#FFFFFF" fill-opacity="1.000000" fill-rule="nonzero"/>
	<path id="Vector" d="M196.406 26.7524L196.406 14.6116L199.626 14.6116L199.626 26.3397C199.626 29.9053 200.708 31.4301 203.222 31.4301C205.168 31.4301 206.511 30.467 208.309 28.2085L208.309 14.6116L211.529 14.6116L211.529 33.7803L208.878 33.7803L208.605 30.7765L208.491 30.7765C206.727 32.863 204.827 34.2159 202.221 34.2159C198.181 34.2502 196.406 31.6478 196.406 26.7524Z" fill="#FFFFFF" fill-opacity="1.000000" fill-rule="nonzero"/>
	<path id="Vector" d="M215.067 31.5906L216.648 29.4583C218.184 30.8846 220.182 31.6997 222.27 31.7511C224.762 31.7511 226.002 30.4098 226.002 28.7704C226.002 26.7985 223.726 25.9271 221.655 25.1361C218.992 24.1616 215.966 22.8431 215.966 19.5988C215.966 16.5377 218.401 14.1646 222.52 14.1646C224.674 14.1979 226.756 14.952 228.437 16.3085L226.901 18.395C225.681 17.3546 224.151 16.7537 222.554 16.6868C220.165 16.6868 219.061 17.9708 219.061 19.4382C219.061 21.2611 221.12 21.949 223.282 22.7629C226.025 23.8062 229.086 24.9297 229.086 28.5754C229.086 31.6824 226.628 34.3077 222.145 34.3077C219.548 34.2374 217.052 33.2792 215.067 31.5906Z" fill="#FFFFFF" fill-opacity="1.000000" fill-rule="nonzero"/>
	<path id="Vector" d="M232.204 8.56995C232.313 8.05762 232.594 7.59875 232.999 7.26953C233.404 6.94031 233.908 6.76074 234.428 6.76074C234.949 6.76074 235.453 6.94031 235.858 7.26953C236.263 7.59875 236.543 8.05762 236.653 8.56995C236.543 9.08228 236.263 9.54126 235.858 9.87048C235.453 10.1997 234.949 10.3793 234.428 10.3793C233.908 10.3793 233.404 10.1997 232.999 9.87048C232.594 9.54126 232.313 9.08228 232.204 8.56995ZM232.796 14.6118L236.005 14.6118L236.005 33.7805L232.796 33.7805L232.796 14.6118Z" fill="#FFFFFF" fill-opacity="1.000000" fill-rule="nonzero"/>
	<path id="Vector" d="M240.284 24.2189C240.284 17.8217 244.574 14.1416 249.387 14.1416C251.468 14.1443 253.465 14.9673 254.952 16.4344L253.29 18.4867C252.301 17.4497 250.95 16.8412 249.524 16.7899C246.11 16.7899 243.55 19.7821 243.55 24.1731C243.55 28.564 245.939 31.4989 249.433 31.4989C251.109 31.4524 252.711 30.7921 253.939 29.6416L255.327 31.8085C253.647 33.3574 251.459 34.2271 249.182 34.2504C244.084 34.2504 240.284 30.5703 240.284 24.2189Z" fill="#FFFFFF" fill-opacity="1.000000" fill-rule="nonzero"/>
	<path id="Vector" d="M0 20.0458C-0.0126953 24.9589 1.77881 29.703 5.02979 33.3651C8.28052 37.0272 12.761 39.3485 17.6086 39.8822C22.4563 40.4159 27.3286 39.1241 31.2876 36.2557C35.2466 33.3873 38.0127 29.1449 39.0535 24.345L33.8191 24.345C33.6392 24.3817 33.4734 24.4691 33.3411 24.5972C32.9597 24.9871 32.6169 25.4133 32.3169 25.8698C32.2334 26.0172 32.1096 26.1375 31.9604 26.2167C31.8113 26.2959 31.6431 26.3306 31.4749 26.3169C31.0652 26.3169 30.6443 26.3169 30.2004 26.3743L30.2004 28.0939C30.519 28.197 30.8604 28.2888 31.1904 28.4149C31.3613 28.4773 31.5039 28.6 31.5918 28.7603C31.6794 28.9204 31.7068 29.1073 31.6685 29.2863C31.6685 29.7103 31.6685 30.146 31.2131 30.3524C30.1184 30.7986 28.8943 30.7986 27.7996 30.3524C27.6372 30.2928 27.5012 30.1772 27.4158 30.026C27.3303 29.8748 27.301 29.6979 27.333 29.527C27.333 29.0913 27.2419 28.6097 27.7881 28.3805C28.1294 28.2544 28.4709 28.1512 28.8235 28.0366L28.8235 26.4315L23.2021 26.6952L23.2021 28.1053L23.3501 28.1742C24.5791 28.541 24.3857 28.7703 24.3401 29.8823C24.3401 30.0773 24.0215 30.3409 23.7939 30.4441C22.9895 30.7635 22.095 30.7635 21.2905 30.4441C20.6079 30.2148 20.7102 29.6531 20.6875 29.1257C20.6758 28.9275 20.7366 28.7319 20.8582 28.5757C20.9797 28.4194 21.1538 28.3134 21.3474 28.2773C21.5112 28.2114 21.6785 28.1541 21.8481 28.1053L21.8481 26.7296L16.3748 26.9818L16.3748 28.1283L16.7388 28.2314C18.002 28.564 17.8086 28.8506 17.7629 29.8479C17.7629 30.0428 17.5127 30.295 17.3193 30.3868C16.8008 30.6082 16.2437 30.7222 15.6807 30.7222C15.1177 30.7222 14.5603 30.6082 14.042 30.3868C13.4844 30.1689 13.5981 29.676 13.5754 29.2404C13.5513 29.0685 13.5881 28.8937 13.6799 28.7467C13.7715 28.5997 13.9119 28.4904 14.0762 28.4379C14.3833 28.3118 14.6907 28.2314 15.0205 28.1283L15.0205 27.0964L8.39795 27.4175L8.39795 12.7544L15.0205 13.0753L15.0205 12.0436C14.6907 11.9404 14.3833 11.8601 14.0762 11.734C13.9119 11.6815 13.7715 11.572 13.6799 11.4252C13.5881 11.2782 13.5513 11.1033 13.5754 10.9315C13.5754 10.4844 13.4844 9.99146 14.042 9.78503C14.5598 9.56116 15.1172 9.44568 15.6807 9.44568C16.2439 9.44568 16.8015 9.56116 17.3193 9.78503C17.5127 9.87671 17.7629 10.129 17.7629 10.3124C17.7629 11.3213 18.002 11.6079 16.7388 11.9404L16.3748 12.0436L16.3748 13.1901L21.8481 13.4423L21.8481 12.0665L21.3474 11.8945C21.1538 11.8585 20.9797 11.7524 20.8582 11.5962C20.7366 11.4399 20.6758 11.2443 20.6875 11.0461C20.6875 10.5073 20.6079 9.95703 21.2905 9.72778C22.095 9.40833 22.9895 9.40833 23.7939 9.72778C24.0215 9.83093 24.3289 10.0946 24.3401 10.2894C24.3401 11.4359 24.5791 11.6194 23.3501 11.9977L23.2021 12.0665L23.2021 13.4766L28.8235 13.7404L28.8235 12.0206C28.4709 11.906 28.1294 11.8029 27.7881 11.6766C27.2419 11.4818 27.3557 11.0002 27.333 10.5303C27.301 10.3593 27.3303 10.1824 27.4158 10.0312C27.5012 9.88 27.6372 9.76428 27.7996 9.70483C28.8943 9.25854 30.1184 9.25854 31.2131 9.70483C31.7253 9.91113 31.657 10.3468 31.6685 10.771C31.7068 10.95 31.6794 11.1367 31.5918 11.297C31.5039 11.4572 31.3613 11.5798 31.1904 11.6423L30.2004 11.9633L30.2004 13.683C30.6443 13.683 31.0652 13.7518 31.4749 13.683C31.6431 13.6693 31.8113 13.704 31.9604 13.7832C32.1096 13.8624 32.2334 13.9827 32.3169 14.1301C32.6169 14.5865 32.9597 15.0127 33.3411 15.4027C33.4766 15.5265 33.6409 15.6133 33.8191 15.6549L39.0535 15.6549C38.0129 10.856 35.2478 6.61426 31.2898 3.74585C27.332 0.877563 22.4612 -0.414917 17.6143 0.117188C12.7676 0.649292 8.28711 2.96851 5.0354 6.62842C1.78369 10.2883 -0.00976562 15.0305 0 19.9426L0 20.0458Z" fill="#FFFFFF" fill-opacity="1.000000" fill-rule="nonzero"/>
</svg>
